<?xml version="1.0" encoding="UTF-8" standalone="no"?>
<!-- Created with Inkscape (http://www.inkscape.org/) -->

<svg
   width="117.43472"
   height="48"
   version="1.1"
   viewBox="0 0 117.43472 48"
   id="svg2"
   xml:space="preserve"
   xmlns:xlink="http://www.w3.org/1999/xlink"
   xmlns="http://www.w3.org/2000/svg"
   xmlns:svg="http://www.w3.org/2000/svg"><defs
     id="defs6"><color-profile
       name="FOGRA28L-Web-Coated"
       xlink:href="file:///usr/share/color/icc/colord/FOGRA28L_webcoated.icc"
       id="color-profile1" /></defs><g
     id="layer2"
     transform="translate(-121.26645,119.90234)"><path
       id="path29"
       style="fill:#ffffff;fill-opacity:1;stroke-width:12;stroke-linejoin:round;stroke-miterlimit:4.4"
       d="m 130.08594,-119.90234 c -0.22128,0 -0.44136,0.13493 -0.4961,0.40625 l -0.96875,4.80273 c -0.30131,1.49382 -1.48204,2.60324 -2.96289,2.96289 l -3.98828,0.96875 c -0.53796,0.13065 -0.53796,0.86348 0,0.99414 l 3.98828,0.96875 c 1.48086,0.35966 2.75008,1.45391 2.96289,2.96289 l 0.96875,6.86719 c 0.10947,0.542647 0.88467,0.542647 0.99414,0 l 0.96875,-6.86719 c 0.21281,-1.50898 1.44453,-2.83285 2.96289,-2.96289 l 11.3086,-0.96875 c 0.55157,-0.0472 0.55157,-0.94694 0,-0.99414 l -11.3086,-0.96875 c -1.51836,-0.13004 -2.66157,-1.46906 -2.96289,-2.96289 l -0.96875,-4.80273 c -0.0547,-0.27132 -0.27677,-0.40625 -0.49804,-0.40625 z m 53.03125,7.46875 c -5.0243,0 -5.71289,4.38979 -5.71289,8.72656 v 21.703124 c 0,5.870504 0.52993,10.101562 5.71289,10.101562 4.70699,0 5.71094,-4.231058 5.71093,-10.101562 v -1.00586 h -3.80664 v 1.00586 c -0.10577,4.812758 -0.10611,6.345703 -1.90429,6.345703 -1.79817,0 -1.9043,-0.792524 -1.9043,-6.345703 v -21.703124 c 0,-4.12522 0.15902,-4.9707 1.9043,-4.9707 1.74529,0 1.90429,1.10992 1.90429,4.9707 v 0.95117 h 3.80664 v -0.95117 c 0,-7.19269 -2.00881,-8.72656 -5.71093,-8.72656 z m -47.12305,8.63867 v 31.73242 h 3.80859 v -14.332031 h 5.12891 v -3.595703 h -5.12891 v -10.207036 h 6.13477 v -3.59765 z m 16.55274,0 c -1.63952,0 -3.22504,1.79986 -3.75391,4.814451 -1.58663,9.043749 -1.375,23.427391 -1.375,26.917969 h 3.5957 c 0,-1.375078 -0.0529,-3.965886 0,-6.980469 h 3.91406 l 0.0527,6.980469 h 3.80859 l -0.10547,-31.73242 z m 8.77929,0 v 31.73242 h 3.59766 l -0.0527,-27.078125 c 0.79331,3.860778 1.32227,8.304352 1.32227,11.794922 h 3.5957 c 0,-3.702122 0.47607,-8.092497 1.32227,-11.900391 V -72.0625 h 3.80859 v -31.73242 h -5.60742 l -1.21484,10.630858 c -0.10578,-2.379935 -1.00675,-9.150018 -1.37696,-10.630858 z m 29.61719,0 v 31.73242 h 9.4668 v -3.595703 h -5.65821 v -28.136717 z m 11.00195,0 v 21.791014 c 0,5.870504 0.4222,9.941406 5.71094,9.941406 h 4.23047 v -3.595703 h -4.125 -0.10547 c -1.79817,0 -1.9043,-0.792524 -1.9043,-6.345703 v -4.759766 h 5.13086 v -3.597656 h -5.13086 v -9.835942 h 6.13477 v -3.59765 z m 16.55274,0 c -1.63951,0 -3.22504,1.79986 -3.75391,4.814451 -1.58663,9.043749 -1.375,23.427391 -1.375,26.917969 h 3.5957 c 0,-1.375078 -0.0529,-3.965886 0,-6.980469 h 3.91407 l 0.0527,6.980469 h 3.80664 l -0.10547,-31.73242 z m 8.77929,0 v 31.73242 h 3.59766 v -20.625 c 2.27417,3.384798 4.23047,14.96604 4.23047,20.625 h 3.5957 v -31.73242 h -3.5957 v 14.439451 c 0,-3.01459 -3.43715,-14.439451 -4.23047,-14.439451 z m -72.40234,3.59765 0.0527,17.558598 h -3.86132 c 0.10577,-5.976283 0.42348,-12.745602 1.21679,-16.289062 0.26444,-1.163526 0.52919,-1.269536 2.5918,-1.269536 z m 65.95117,0 0.0527,17.558598 h -3.86133 c 0.10577,-5.976283 0.42348,-12.745602 1.2168,-16.289062 0.26444,-1.163526 0.52918,-1.269536 2.59179,-1.269536 z" /></g></svg>
