<?xml version="1.0" encoding="UTF-8" standalone="no"?>
<!-- Created with Inkscape (http://www.inkscape.org/) -->

<svg
   width="107.9722"
   height="47.788605"
   version="1.1"
   viewBox="0 0 107.9722 47.788605"
   id="svg2"
   xml:space="preserve"
   xmlns:xlink="http://www.w3.org/1999/xlink"
   xmlns="http://www.w3.org/2000/svg"
   xmlns:svg="http://www.w3.org/2000/svg"><defs
     id="defs6"><color-profile
       name="FOGRA28L-Web-Coated"
       xlink:href="file:///usr/share/color/icc/colord/FOGRA28L_webcoated.icc"
       id="color-profile1" /></defs><g
     id="layer2"
     transform="translate(-139.45508,213.27496)"><path
       id="text16"
       style="font-weight:600;font-size:74.6667px;line-height:1;font-family:Nebulas;-inkscape-font-specification:'Nebulas Semi-Bold';letter-spacing:0px;word-spacing:0px;fill:#ffffff;stroke:none;stroke-width:6;stroke-linecap:round;stroke-linejoin:round;stroke-miterlimit:4.4"
       d="m 162.2832,-210.55273 c -1.20269,0 -2.12315,0.35247 -2.81054,1.05664 -0.6704,0.70394 -1.02605,1.6415 -1.06055,2.84765 l 0.002,1.21875 h -1.89453 v 2.27149 h 1.89453 v 10.64258 h 3.33789 v -10.64258 h 1.78711 v -2.27149 H 161.752 v -1.03906 c 0,-1.07045 0.50463,-1.65039 1.46485,-1.65039 0.1357,0 0.26227,0.006 0.37695,0.0176 v -2.30664 c -0.44528,-0.0964 -0.88182,-0.14453 -1.31055,-0.14453 z m 40.46289,0.0273 v 2.69922 h 1.78321 l 1.41992,-2.69922 z m 5.49414,0 v 18.00977 h 3.33985 v -18.00977 z m -36.96679,4.69531 c -1.85659,0 -3.35296,0.3739 -4.50196,1.11133 -0.56063,0.36527 -0.97273,0.80294 -1.24804,1.31641 -0.24668,0.46007 -0.38419,0.98334 -0.41016,1.57812 h 3.37305 c 0.053,-0.48865 0.29598,-0.88804 0.71875,-1.1875 0.49501,-0.33666 1.17282,-0.49414 2.01367,-0.49414 0.85464,0 1.54003,0.15725 2.01562,0.49414 0.48184,0.3413 0.73047,0.81348 0.73047,1.39844 v 0.13281 c 0,0.45858 -0.425,0.76812 -1.08203,0.97461 -0.64332,0.18389 -1.50476,0.33617 -2.57422,0.46094 -2.01137,0.21173 -3.50346,0.63788 -4.47265,1.25 -0.48248,0.29628 -0.83337,0.65742 -1.06836,1.08984 -0.23499,0.43243 -0.35352,0.93939 -0.35352,1.53321 0,0.67258 0.18228,1.31568 0.55664,1.94531 0.3701,0.60558 0.90135,1.10415 1.60352,1.49804 0.69252,0.37156 1.49103,0.56055 2.4043,0.56055 0.89636,0 1.79306,-0.18056 2.69531,-0.54492 0.91015,-0.37782 1.57335,-0.90282 2.00976,-1.57422 l 0.0625,-0.0957 h 0.71289 l 0.37305,1.86719 h 3.22852 L 177.30273,-196.5 v -5.11328 c 0,-0.69218 -0.13735,-1.28952 -0.4082,-1.80274 -0.27084,-0.51322 -0.67452,-0.94603 -1.22656,-1.30273 -1.09707,-0.73706 -2.556,-1.11133 -4.39453,-1.11133 z m 16.53711,0.0254 c -1.58877,0 -2.87463,0.52586 -3.9043,1.58985 l -0.0606,0.0645 h -0.64843 v -1.2793 h -3.3379 v 12.91407 h 3.3379 v -6.9375 c 0.0182,-1.23612 0.26593,-2.23291 0.75781,-2.97071 0.50051,-0.75076 1.21663,-1.13476 2.12109,-1.13476 0.77438,0 1.40054,0.30682 1.84961,0.91211 0.46537,0.58146 0.68164,1.46512 0.68164,2.60742 v 7.52344 h 3.33985 v -6.9375 c 0.0181,-1.23501 0.2537,-2.22914 0.72656,-2.9668 0.4842,-0.75535 1.1897,-1.13867 2.09765,-1.13867 0.77679,0.0194 1.39821,0.32389 1.84766,0.91015 0.4664,0.58292 0.6928,1.46363 0.71094,2.60547 v 7.52735 h 3.33984 v -7.55079 c -0.0175,-1.90977 -0.39607,-3.33997 -1.10547,-4.30273 -0.34705,-0.48246 -0.76753,-0.83771 -1.27343,-1.07617 -0.50591,-0.23847 -1.09885,-0.35938 -1.78516,-0.35938 -2.21981,0 -3.78072,0.60351 -4.74609,1.78907 l -0.0625,0.0781 h -0.53711 l -0.0625,-0.10156 c -0.36582,-0.59551 -0.81609,-1.03157 -1.35938,-1.32422 -0.54329,-0.29265 -1.18235,-0.44141 -1.92773,-0.44141 z m 14.93554,0.375 v 12.91407 h 3.33985 v -12.91407 z m 10.5918,0 4.39063,12.91407 h 2.15625 l -0.91407,1.9375 c -0.36784,0.87165 -1.05689,1.32031 -2.02929,1.32031 h -0.99024 v 2.69922 h 1.60352 c 1.10206,0 1.98169,-0.2761 2.68554,-0.92969 0.71247,-0.64464 1.65253,-1.96174 2.20899,-3.47461 l 4.86328,-14.4668 h -3.12891 l -3.36132,10.00196 h -0.88868 l -3.20117,-10.00196 z m -40.04687,6.61914 h 0.67382 v 1.85938 l -0.006,0.0215 c -0.13942,0.67721 -0.61608,1.23787 -1.38086,1.68555 -0.74642,0.4292 -1.55237,0.64258 -2.42578,0.64258 -0.61762,0 -1.16286,-0.13162 -1.62695,-0.40235 -0.49528,-0.30944 -0.74414,-0.76881 -0.74414,-1.35546 0,-0.52888 0.19453,-0.91504 0.60547,-1.09766 0.36902,-0.17488 0.95151,-0.30188 1.71484,-0.39063 0.71952,-0.10539 1.32032,-0.21137 1.79297,-0.3164 0.44877,-0.11648 0.89819,-0.31999 1.34375,-0.61133 z m -25.2793,9.15235 c -1.88933,0 -3.51019,0.41909 -4.78516,1.24609 -1.26511,0.81453 -2.20493,1.92565 -2.83008,3.34961 -0.6273,1.41143 -0.9414,3.00781 -0.9414,4.79688 0,1.80707 0.31423,3.423 0.9414,4.85156 0.62466,1.40548 1.56399,2.51515 2.83008,3.34765 1.27225,0.80801 2.89513,1.21875 4.78516,1.21875 1.51978,0 3.30006,-0.30288 4.49805,-0.88476 1.23548,-0.59165 2.20808,-1.39294 2.93359,-2.41211 0.68235,-0.97479 1.08074,-2.05138 1.19726,-3.24219 h -3.63867 c -0.13338,0.9889 -0.61543,1.80721 -1.44336,2.45899 -0.88899,0.69984 -2.3584,1.03515 -3.57422,1.03515 -1.64493,0 -2.94268,-0.62674 -3.76757,-1.88281 -0.79153,-1.23331 -1.18164,-2.73263 -1.18164,-4.49023 0,-1.75763 0.39052,-3.24861 1.18164,-4.4629 0.82532,-1.25672 2.12264,-1.88281 3.76757,-1.88281 1.13896,0 2.54761,0.29743 3.38282,0.92383 0.78783,0.56016 1.29589,1.29691 1.50976,2.19727 h 3.69141 c -0.1962,-1.13221 -0.6374,-2.14617 -1.33203,-3.05079 -0.72712,-0.96947 -1.67776,-1.7291 -2.85938,-2.28515 -1.16289,-0.54725 -2.89816,-0.83203 -4.36523,-0.83203 z m 10.40234,0.40039 v 18.00976 h 3.33789 v -18.00976 z m 49.82617,0 v 2.69922 h 1.78321 l 1.41992,-2.69922 z m 25.74414,4.66797 c -1.08022,0 -2.07497,0.30453 -3.0039,0.92382 -0.91268,0.60272 -1.64468,1.42729 -2.19922,2.48438 -0.53488,1.05254 -0.80078,2.19894 -0.80078,3.44922 0,1.25029 0.26665,2.39825 0.80273,3.45312 0.55266,1.03615 1.28337,1.86167 2.19727,2.48243 0.92518,0.5996 1.9225,0.89648 3.0039,0.89648 0.77216,0 1.50569,-0.15217 2.20899,-0.46094 0.70158,-0.32517 1.32026,-0.77218 1.85351,-1.33984 l 0.36329,-0.38477 v 2.23633 c -0.0184,1.06616 -0.27779,1.87572 -0.8125,2.39063 -0.53304,0.51329 -1.34173,0.7539 -2.38672,0.7539 -0.66361,0 -1.23155,-0.17123 -1.70117,-0.52344 -0.4287,-0.32152 -0.70261,-0.76441 -0.82227,-1.3164 h -3.53711 c 0.28717,1.18908 0.90448,2.13887 1.86719,2.87695 1.02358,0.78474 2.36881,1.18164 4.06054,1.18164 2.28433,0 3.94142,-0.44942 4.98829,-1.31054 1.0667,-0.84664 1.6314,-2.17793 1.68359,-4.0586 l -0.002,-13.33398 h -3.33789 v 1.78515 l -0.36329,-0.38476 c -0.53247,-0.56683 -1.14961,-1.00348 -1.85351,-1.3125 -0.70658,-0.3274 -1.43851,-0.48828 -2.20899,-0.48828 z m -48.70898,0.0273 c -1.85659,0 -3.35091,0.37385 -4.5,1.11133 -0.56067,0.36529 -0.97422,0.80486 -1.25,1.31836 -0.2471,0.46009 -0.38411,0.98148 -0.41016,1.57617 h 3.375 c 0.0527,-0.48828 0.29385,-0.88791 0.7168,-1.1875 0.4956,-0.33705 1.17512,-0.49219 2.01563,-0.49219 0.85432,0 1.53967,0.15507 2.01562,0.49219 0.48184,0.34131 0.73047,0.81348 0.73047,1.39844 v 0.13281 c 0,0.45857 -0.42502,0.76812 -1.08203,0.97461 -0.64295,0.18376 -1.5045,0.33809 -2.57422,0.46289 -2.01151,0.21176 -3.50363,0.63603 -4.47266,1.24805 -0.48248,0.29628 -0.83337,0.65742 -1.06836,1.08984 -0.23499,0.43242 -0.35351,0.93937 -0.35351,1.5332 0,0.67259 0.18236,1.31781 0.55664,1.94727 0.36999,0.60542 0.90109,1.10205 1.60351,1.49609 0.69252,0.37155 1.49104,0.56055 2.4043,0.56055 0.89636,0 1.79308,-0.18056 2.69531,-0.54492 0.91017,-0.37782 1.57337,-0.90282 2.00977,-1.57422 l 0.0625,-0.0957 h 0.71289 l 0.37305,1.86718 h 3.22851 l -0.75781,-3.98437 v -5.11328 c 0,-0.69208 -0.13689,-1.28949 -0.4082,-1.80274 -0.27132,-0.51324 -0.67643,-0.946 -1.22852,-1.30273 -1.09706,-0.73705 -2.55599,-1.11133 -4.39453,-1.11133 z m -14.91016,0.0273 c -1.51891,0 -2.7856,0.30414 -3.81445,0.9043 -1.03594,0.58705 -1.79334,1.38633 -2.29101,2.41602 -0.50076,1.03605 -0.75196,2.20313 -0.75196,3.50976 0,1.32477 0.25137,2.49946 0.75196,3.53516 0.497,1.01113 1.25569,1.81403 2.29101,2.41797 1.02885,0.60016 2.29554,0.90429 3.81445,0.90429 1.79906,0 3.25322,-0.41533 4.38477,-1.23828 1.08497,-0.77729 1.80459,-1.83135 2.17383,-3.19336 h -3.50586 c -0.25802,0.64277 -0.62424,1.16957 -1.10156,1.57618 -0.52624,0.42884 -1.18171,0.63671 -1.95118,0.63671 -1.01601,0 -1.82752,-0.35309 -2.40429,-1.06445 -0.54621,-0.69684 -0.87775,-1.58111 -1.00586,-2.64258 l -0.0274,-0.23633 h 10.26954 v -0.74804 c -0.0174,-1.30451 -0.27674,-2.46396 -0.77735,-3.48242 -0.49739,-1.01194 -1.25669,-1.80256 -2.29101,-2.38868 -1.0143,-0.60165 -2.26286,-0.90625 -3.76368,-0.90625 z m 31.42188,0 c -1.53317,0 -2.79112,0.53058 -3.82227,1.61329 l -0.0625,0.0664 h -0.70117 v -1.30664 h -3.33789 v 12.91406 h 3.33789 v -7.01757 c 0.0183,-1.22754 0.313,-2.21117 0.90235,-2.9336 0.58804,-0.72082 1.33411,-1.0918 2.21679,-1.0918 0.78651,0 1.4573,0.29396 1.99414,0.86915 0.54605,0.56552 0.81188,1.45552 0.83008,2.61914 v 7.55468 h 3.33984 v -7.55078 c -0.0175,-1.84968 -0.46855,-3.25212 -1.33398,-4.23633 -0.43659,-0.50506 -0.93055,-0.87807 -1.48828,-1.12695 -0.55773,-0.24888 -1.18023,-0.37305 -1.875,-0.37305 z m 19.74023,0 c -1.53315,0 -2.79112,0.53058 -3.82226,1.61329 l -0.0625,0.0664 h -0.70117 v -1.30664 h -3.33789 v 12.91406 h 3.33789 v -7.01757 c 0.0183,-1.22754 0.31298,-2.21117 0.90234,-2.9336 0.58804,-0.72082 1.33412,-1.0918 2.2168,-1.0918 0.7865,0 1.45729,0.29396 1.99414,0.86915 0.54604,0.56552 0.81188,1.45552 0.83008,2.61914 v 7.55468 h 3.33984 v -7.55078 c -0.0175,-1.84968 -0.46856,-3.25212 -1.33399,-4.23633 -0.43659,-0.50506 -0.93055,-0.87807 -1.48828,-1.12695 -0.55773,-0.24888 -1.18022,-0.37305 -1.875,-0.37305 z m -13.28711,0.37305 v 12.91406 h 3.33985 v -12.91406 z m -37.875,1.81836 c 0.90442,0 1.63872,0.28743 2.18164,0.86914 0.54478,0.56352 0.91458,1.30057 1.11719,2.20313 l 0.0566,0.25781 h -6.70703 l 0.0527,-0.25195 c 0.18447,-0.90395 0.54765,-1.64597 1.0957,-2.2129 0.56011,-0.57943 1.29871,-0.86523 2.20312,-0.86523 z m 64.49805,0 c 0.6714,0 1.27481,0.20992 1.81055,0.63086 0.54684,0.41481 0.96612,0.97885 1.26367,1.68555 0.2965,0.68563 0.44531,1.45159 0.44531,2.29492 0,0.82608 -0.14904,1.59322 -0.44531,2.29687 -0.29761,0.70683 -0.71623,1.26876 -1.26563,1.68555 -0.53665,0.40249 -1.13892,0.60352 -1.80859,0.60352 -0.65477,0 -1.24676,-0.21091 -1.78125,-0.63086 -0.52765,-0.41459 -0.94904,-0.96756 -1.26367,-1.65235 -0.29913,-0.71015 -0.44531,-1.47699 -0.44531,-2.30273 0,-0.84299 0.14592,-1.60906 0.44336,-2.29688 0.31537,-0.70501 0.73667,-1.26798 1.26562,-1.68359 0.53449,-0.41996 1.12648,-0.63086 1.78125,-0.63086 z m -47.56836,4.80078 h 0.67383 v 1.85938 l -0.006,0.0215 c -0.13943,0.67721 -0.61608,1.23787 -1.38086,1.68555 -0.74618,0.42906 -1.55205,0.64453 -2.42578,0.64453 -0.6181,0 -1.16328,-0.13383 -1.62695,-0.4043 -0.49529,-0.30944 -0.74414,-0.76882 -0.74414,-1.35547 0,-0.52825 0.19229,-0.91488 0.60351,-1.09765 0.36931,-0.175 0.95351,-0.30189 1.7168,-0.39063 0.71951,-0.10539 1.32032,-0.21137 1.79297,-0.3164 0.44876,-0.11649 0.89819,-0.32 1.34375,-0.61133 z" /><path
       d="m 239.79367,-213.27497 -1.67035,4.52732 c -0.24201,0.65594 -0.79944,1.14661 -1.43592,1.43592 l -4.52732,1.67036 4.52732,1.67035 c 0.65594,0.24201 1.14661,0.79943 1.43592,1.43593 l 1.67035,4.52732 1.67035,-4.52732 c 0.24201,-0.65594 0.79944,-1.14662 1.43593,-1.43593 l 4.52732,-1.67035 -4.52732,-1.67036 c -0.65594,-0.242 -1.14661,-0.79943 -1.43593,-1.43592 z"
       style="fill:#ffffff;stroke:none;stroke-width:6;stroke-linecap:round;stroke-linejoin:round;stroke-miterlimit:4.4"
       id="path1" /></g></svg>
